<svg xmlns="http://www.w3.org/2000/svg" width="32" height="32" viewBox="0 0 32 32" fill="none">
  <defs>
    <linearGradient id="bg" x1="0" y1="0" x2="32" y2="32" gradientUnits="userSpaceOnUse">
      <stop stop-color="#FFF6B8"/>
      <stop offset="1" stop-color="#FFFFFF"/>
    </linearGradient>
    <linearGradient id="accent" x1="18" y1="6" x2="26" y2="26" gradientUnits="userSpaceOnUse">
      <stop stop-color="#F6E34F"/>
      <stop offset="1" stop-color="#C5A700"/>
    </linearGradient>
  </defs>

  <rect width="32" height="32" rx="8" fill="url(#bg)"/>

  <!-- simplified book -->
  <path
    d="M10.2 9.2c0-1.2 1-2.2 2.2-2.2h9.7c1.4 0 2.6 1.1 2.6 2.6v13.6c0 .5-.4.9-.9.9H13.3c-1.7 0-3.1 1.4-3.1 3.1V9.2Z"
    fill="#fff"
    stroke="#222"
    stroke-opacity=".14"
    stroke-width="1.1"
    stroke-linejoin="round"
  />
  <path
    d="M10.2 9.2c0-1.2 1-2.2 2.2-2.2h1.1v16.9h-.2c-1.7 0-3.1 1.4-3.1 3.1V9.2Z"
    fill="#fff"
    stroke="#222"
    stroke-opacity=".10"
    stroke-width="1.1"
    stroke-linejoin="round"
  />

  <!-- bookmark -->
  <path d="M19.2 8.4c0-.8.6-1.4 1.4-1.4h2.6c.8 0 1.4.6 1.4 1.4v6.4l-2.7-1.2-2.7 1.2V8.4Z" fill="url(#accent)"/>
</svg>
